<?xml version="1.0" encoding="utf-8"?>
<svg version="1.1" width="1080" height="1080" viewBox="0 0 134.033 136.611" xmlns="http://www.w3.org/2000/svg">
  <desc>Created with Fabric.js 5.2.4</desc>
  <g transform="matrix(1 0 0 1 540 540)" id="6af4724e-b34d-4ca2-857a-7982dda79109"/>
  <g transform="matrix(1 0 0 1 540 540)" id="6ca463c7-3fea-47d3-bb2d-e0483c4482eb">
    <rect style="stroke: none; stroke-width: 1; stroke-dasharray: none; stroke-linecap: butt; stroke-dashoffset: 0; stroke-linejoin: miter; stroke-miterlimit: 4; fill: rgb(255,255,255); fill-rule: nonzero; opacity: 1; visibility: hidden;" vector-effect="non-scaling-stroke" x="-540" y="-540" rx="0" ry="0" width="1080" height="1080"/>
  </g>
  <desc>Created with Fabric.js 5.2.4</desc>
  <desc>Created with Fabric.js 5.2.4</desc>
  <rect x="-474.547" y="-472.279" width="767" height="734" fill="transparent"/>
  <g id="g-1" transform="matrix(1, 0, 0, 1, -474.54737, -472.278724)"/>
  <g transform="matrix(1, 0, 0, 1, 65.452653, 67.721322)" id="g-2">
    <rect style="stroke: none; stroke-width: 1; stroke-dasharray: none; stroke-linecap: butt; stroke-dashoffset: 0; stroke-linejoin: miter; stroke-miterlimit: 4; fill: rgb(255,255,255); fill-rule: nonzero; opacity: 1; visibility: hidden;" vector-effect="non-scaling-stroke" x="-540" y="-540" rx="0" ry="0" width="1080" height="1080"/>
  </g>
  <g transform="matrix(0.71, 0.71, -0.71, 0.71, 65.452653, 67.721322)">
    <g style="" vector-effect="non-scaling-stroke">
      <g transform="matrix(1 0 0 1 0 0)">
        <desc>Created with Fabric.js 5.2.4</desc>
        <g id="g-3" transform="matrix(1, 0, 0, 1, -666.842539, -14.768172)"/>
        <g transform="matrix(0.704225, -0.704225, 0.704225, 0.704225, -0.063571, -16.365826)" id="g-4">
          <rect style="stroke: none; stroke-width: 1; stroke-dasharray: none; stroke-linecap: butt; stroke-dashoffset: 0; stroke-linejoin: miter; stroke-miterlimit: 4; fill: rgb(255,255,255); fill-rule: nonzero; opacity: 1; visibility: hidden;" vector-effect="non-scaling-stroke" x="-540" y="-540" rx="0" ry="0" width="1080" height="1080"/>
        </g>
        <g transform="matrix(0.704225, 0.704225, -0.704225, 0.704225, -0.063571, -16.365826)">
          <g style="" vector-effect="non-scaling-stroke">
            <g transform="matrix(1 0 0 1 0 0)"/>
          </g>
        </g>
        <desc>Created with Fabric.js 5.2.4</desc>
        <desc>Created with Fabric.js 5.2.4</desc>
        <desc>Created with Fabric.js 5.2.4</desc>
        <desc>Created with Fabric.js 5.2.4</desc>
        <desc>Created with Fabric.js 5.2.4</desc>
        <rect width="763.874" height="731.009" fill="transparent" transform="matrix(0.707107, -0.707107, 0.707107, 0.707107, -756.96925, -0.998131)"/>
        <g id="g-5" transform="matrix(1, 0, 0, 1, -663.184763, 0.599523)"/>
        <g transform="matrix(0.704225, -0.704225, 0.704225, 0.704225, 3.594176, -0.998131)" id="g-6">
          <rect style="stroke: none; stroke-width: 1; stroke-dasharray: none; stroke-linecap: butt; stroke-dashoffset: 0; stroke-linejoin: miter; stroke-miterlimit: 4; fill: rgb(255,255,255); fill-rule: nonzero; opacity: 1; visibility: hidden;" vector-effect="non-scaling-stroke" x="-540" y="-540" rx="0" ry="0" width="1080" height="1080"/>
        </g>
        <g transform="matrix(-0.704225, -0.704225, 0.704225, -0.704225, 3.594176, -0.998131)">
          <g style="" vector-effect="non-scaling-stroke">
            <g transform="matrix(1 0 0 1 0 0)">
              <path style="stroke: none; stroke-width: 1; stroke-dasharray: none; stroke-linecap: butt; stroke-dashoffset: 0; stroke-linejoin: miter; stroke-miterlimit: 4; fill: rgb(0,0,0); fill-rule: nonzero; opacity: 1;" vector-effect="non-scaling-stroke" transform=" translate(-63, -63.35)" d="M 99.4 73.5 L 126 73.5 C 121.1 103.7 95 126.7 63.4 126.7 C 28.4 126.8 0 98.4 0 63.4 C 0 28.39999999999999 28.4 0 63.4 0 C 95 0 121.1 23.1 126 53.3 L 99.4 53.3 L 99.4 73.5 z" stroke-linecap="round"/>
            </g>
            <g transform="matrix(1 0 0 1 0 0.05)">
              <circle style="stroke: none; stroke-width: 1; stroke-dasharray: none; stroke-linecap: butt; stroke-dashoffset: 0; stroke-linejoin: miter; stroke-miterlimit: 4; fill: rgb(255,255,255); fill-rule: nonzero; opacity: 1;" vector-effect="non-scaling-stroke" cx="0" cy="0" r="37.8"/>
            </g>
          </g>
        </g>
      </g>
      <g transform="matrix(1 0 0 1 0 0.05)"/>
    </g>
  </g>
  <desc>Created with Fabric.js 5.2.4</desc>
</svg>